<svg width="21" height="21" viewBox="0 0 21 21" fill="none" xmlns="http://www.w3.org/2000/svg">
<g clip-path="url(#clip0_27_358)">
<path d="M8.78916 9.44167C8.70583 9.18333 8.63083 8.93333 8.54749 8.675C8.46416 8.41667 8.38916 8.175 8.32249 7.93333C8.25583 7.7 8.19749 7.48333 8.13916 7.28333H8.12249C8.04749 7.64167 7.95583 8 7.83916 8.35833C7.71416 8.75833 7.58916 9.175 7.45583 9.59167C7.33916 10.0167 7.21416 10.4083 7.08916 10.7583H9.20583C9.15583 10.5825 9.08916 10.375 9.01416 10.1575C8.93916 9.93333 8.86416 9.69167 8.78916 9.44167ZM16.4725 0.75H3.55583C1.59749 0.75 0.0141602 2.33333 0.0141602 4.29167V16.7083C0.0141602 18.6667 1.59749 20.25 3.55583 20.25H16.4725C18.4308 20.25 20.0142 18.6667 20.0142 16.7083V4.29167C20.0142 2.33333 18.4308 0.75 16.4725 0.75ZM12.2642 14.525H10.5217C10.4642 14.5333 10.4058 14.4917 10.3892 14.4333L9.70583 12.45H6.60583L5.97249 14.4083C5.95583 14.4833 5.88916 14.5333 5.81416 14.5258H4.24749C4.15583 14.5258 4.13083 14.475 4.15583 14.3758L6.83916 6.65C6.86416 6.56667 6.88916 6.475 6.92249 6.375C6.95583 6.2 6.97249 6.01667 6.97249 5.83333C6.96416 5.79167 6.99749 5.75 7.03916 5.74167H9.19749C9.26416 5.74167 9.29749 5.76667 9.30583 5.80833L12.3475 14.3917C12.3725 14.4825 12.3475 14.525 12.2642 14.525ZM15.0975 14.4C15.0975 14.4917 15.065 14.5333 14.99 14.5333H13.3558C13.2725 14.5333 13.2308 14.4825 13.2308 14.4V7.98333C13.2308 7.9 13.265 7.86667 13.34 7.86667H14.99C15.065 7.86667 15.0975 7.90833 15.0975 7.98333V14.4ZM14.9233 6.875C14.7308 7.075 14.4475 7.18333 14.1642 7.16667C13.8892 7.175 13.6225 7.06667 13.4217 6.875C13.23 6.66667 13.13 6.39167 13.1383 6.10833C13.13 5.825 13.2383 5.55833 13.4375 5.36667C13.6392 5.175 13.9058 5.075 14.1808 5.075C14.5067 5.075 14.755 5.175 14.9392 5.36667C15.1225 5.56667 15.2225 5.83333 15.2142 6.10833C15.2225 6.39167 15.1225 6.66667 14.9233 6.875Z" fill="#212121"/>
</g>
<defs>
<clipPath id="clip0_27_358">
<rect width="20" height="20" fill="white" transform="translate(0.0141602 0.5)"/>
</clipPath>
</defs>
</svg>
