<svg width="20" height="20" viewBox="0 0 20 20" fill="none" xmlns="http://www.w3.org/2000/svg">
<path fill-rule="evenodd" clip-rule="evenodd" d="M3.68752 11.7794C3.47074 12.3001 3.34964 12.8557 3.33002 13.4194C3.35993 13.767 3.4785 14.1012 3.67439 14.39C4.043 14.8168 4.48628 15.1728 4.98252 15.4406L8.18752 17.5744C8.58189 17.8882 9.02535 18.1349 9.50002 18.3044C9.80821 18.3777 10.1293 18.3777 10.4375 18.3044C10.9154 18.1369 11.3624 17.892 11.7606 17.5794L15 15.4444C15.5013 15.1757 15.9496 14.8183 16.3231 14.3894C16.5204 14.099 16.6389 13.7624 16.6669 13.4125C16.6456 12.8442 16.5213 12.2845 16.3 11.7606L13.4669 2.84437C13.4037 2.55561 13.2894 2.28045 13.1294 2.03187C13.0129 1.8903 12.8624 1.78063 12.6919 1.71312C12.4071 1.6359 12.1108 1.61008 11.8169 1.63687H8.12814C7.83415 1.61015 7.53775 1.63661 7.25314 1.71499C7.08227 1.78237 6.93161 1.89257 6.81564 2.03499C6.65638 2.28359 6.54312 2.55881 6.48127 2.84749L3.68752 11.7794ZM11.9625 3.52937C12.0943 3.73887 12.1876 3.97021 12.2381 4.21249L14.6706 12.2025C13.757 11.7286 12.7763 11.3971 11.7625 11.2194L10.1819 5.86937C10.1722 5.83777 10.155 5.80896 10.1319 5.78535C10.1087 5.76174 10.0803 5.74402 10.0489 5.73368C10.0175 5.72334 9.98406 5.72067 9.95142 5.7259C9.91878 5.73113 9.88786 5.74411 9.86127 5.76374C9.82558 5.78986 9.79945 5.82696 9.78689 5.86937L8.22439 11.2175C7.20582 11.3948 6.22056 11.7277 5.30314 12.2044L7.74564 4.21437C7.79565 3.97163 7.88925 3.73997 8.02189 3.53062C8.11863 3.41189 8.24373 3.31946 8.38564 3.26187C8.62472 3.19725 8.87346 3.17608 9.12002 3.19937H10.8656C11.1124 3.17606 11.3614 3.19723 11.6006 3.26187C11.743 3.31963 11.8683 3.41252 11.965 3.53187L11.9625 3.52937ZM10.0794 13.1625C10.8316 13.206 11.5775 13.0036 12.2044 12.5856C12.2756 12.81 12.3009 13.0464 12.2787 13.2807C12.2565 13.515 12.1872 13.7424 12.075 13.9494C11.8444 14.3413 11.5098 14.6617 11.1081 14.875C10.6869 15.1425 10.3244 15.375 10.3244 15.9919C10.3239 16.1897 10.3685 16.3851 10.455 16.5631C10.1709 16.4451 9.9282 16.2456 9.75745 15.9898C9.58669 15.7339 9.49559 15.4332 9.49564 15.1256V15.0875C9.49564 14.6606 9.49564 14.135 8.89439 14.135C8.81057 14.1349 8.72756 14.1513 8.65002 14.1831C8.49398 14.2477 8.36991 14.3716 8.30502 14.5275C8.27279 14.605 8.25602 14.688 8.25564 14.7719C7.84354 14.3218 7.62216 13.7294 7.63814 13.1194C7.63522 12.8554 7.67209 12.5924 7.74752 12.3394C7.99752 12.8125 8.94752 13.1644 10.0794 13.1644V13.1625Z" fill="#212121"/>
</svg>
