<svg width="20" height="20" viewBox="0 0 20 20" fill="none" xmlns="http://www.w3.org/2000/svg">
<g clip-path="url(#clip0_27_328)">
<path fill-rule="evenodd" clip-rule="evenodd" d="M4.15407 1.66667C3.01288 1.66667 2.16847 2.66549 2.20627 3.7487C2.24254 4.78938 2.19542 6.13718 1.8561 7.23633C1.51577 8.33867 0.940167 9.037 0 9.12667V10.1388C0.940167 10.2285 1.51577 10.9268 1.8561 12.0293C2.19542 13.1283 2.24254 14.4762 2.20627 15.5168C2.16847 16.5999 3.01288 17.5988 4.15423 17.5988H15.8474C16.9887 17.5988 17.8329 16.6001 17.7951 15.5168C17.7588 14.4762 17.8059 13.1283 18.1452 12.0293C18.4858 10.9268 19.0598 10.2285 20 10.1388V9.12667C19.0598 9.037 18.4858 8.33867 18.1452 7.23633C17.8059 6.13735 17.7588 4.78938 17.7951 3.7487C17.8329 2.66565 16.9887 1.66667 15.8474 1.66667H4.15407ZM13.5593 11.4739C13.5593 12.9655 12.4467 13.8701 10.6005 13.8701H7.45762C7.36772 13.8701 7.2815 13.8343 7.21793 13.7708C7.15436 13.7072 7.11864 13.621 7.11864 13.5311V5.73447C7.11864 5.64456 7.15436 5.55835 7.21793 5.49477C7.2815 5.4312 7.36772 5.39549 7.45762 5.39549H10.5826C12.122 5.39549 13.1323 6.22938 13.1323 7.50972C13.1323 8.40834 12.4528 9.21292 11.5868 9.35375V9.40075C12.7656 9.53009 13.5593 10.3463 13.5593 11.4739ZM10.2578 6.47006H8.46575V9.00126H9.97508C11.1418 9.00126 11.7852 8.53142 11.7852 7.69159C11.7852 6.90464 11.232 6.47006 10.2578 6.47006ZM8.46575 10.0057V12.7952H10.3237C11.5385 12.7952 12.182 12.3077 12.182 11.3916C12.182 10.4753 11.5205 10.0055 10.2456 10.0055L8.46575 10.0057Z" fill="#212121"/>
</g>
<defs>
<clipPath id="clip0_27_328">
<rect width="20" height="20" fill="white"/>
</clipPath>
</defs>
</svg>
