<svg width="20" height="21" viewBox="0 0 20 21" fill="none" xmlns="http://www.w3.org/2000/svg">
<g clip-path="url(#clip0_27_285)">
<path d="M18.8716 0.519569L17.2079 18.5396L9.99992 20.4804L2.79183 18.5396L1.12851 0.519569H18.8716ZM15.5192 4.18367H9.99343H4.3698L4.63874 6.35976H9.99343H10.2942L9.99343 6.48496L4.83445 8.63363L5.00554 10.7607L9.99343 10.7769L12.6668 10.7853L12.4957 13.6215L9.99339 14.326V14.3238L9.97288 14.3295L7.55632 13.7195L7.40968 11.9589H7.40167H5.16019H5.1523L5.4457 15.3576L9.99347 16.7025V16.7001L10.0017 16.7025L14.5251 15.3821L15.1118 8.63363H9.99347H9.98085L9.99347 8.62816L15.2993 6.35976L15.5192 4.18367Z" fill="#212121"/>
</g>
<defs>
<clipPath id="clip0_27_285">
<rect width="20" height="20" fill="white" transform="translate(3.05176e-05 0.5)"/>
</clipPath>
</defs>
</svg>
