<svg width="21" height="21" viewBox="0 0 21 21" fill="none" xmlns="http://www.w3.org/2000/svg">
<path d="M12.9466 8.14188C11.6441 8.14188 10.5885 9.1975 10.5885 10.5C10.5885 11.8025 11.6441 12.8581 12.9466 12.8581H13.0229C14.3254 12.8581 15.381 11.8025 15.381 10.5C15.381 9.1975 14.3254 8.14188 13.0229 8.14188H12.9466ZM13.0229 14.0069H12.9466C11.0098 14.0069 9.43976 12.4369 9.43976 10.5C9.43976 8.56313 11.0098 6.99313 12.9466 6.99313H13.0229C14.9598 6.99313 16.5298 8.56313 16.5298 10.5C16.5298 12.4369 14.9598 14.0069 13.0229 14.0069ZM7.00539 14.0069C5.70289 14.0069 4.64664 15.0625 4.64664 16.365C4.64664 17.6675 5.70226 18.7231 7.00476 18.7231C7.01164 18.7231 7.01914 18.7231 7.02601 18.7231H7.02476C7.02476 18.7231 7.02914 18.7231 7.03164 18.7231C8.35726 18.7231 9.43351 17.6519 9.44039 16.3275V14.0069H7.00539ZM7.02414 19.8725C7.01601 19.8725 7.00601 19.8725 6.99601 19.8725C5.05914 19.8725 3.48914 18.3025 3.48914 16.3656C3.48914 14.4288 5.05914 12.8588 6.99601 12.8588C6.99914 12.8588 7.00226 12.8588 7.00539 12.8588H10.5885V16.3275C10.581 18.2869 8.99039 19.8725 7.03039 19.8725H7.02414ZM7.00539 8.14188C5.70289 8.14188 4.64726 9.1975 4.64726 10.5C4.64726 11.8025 5.70289 12.8588 7.00539 12.8588L9.43976 12.8581V8.1425L7.00539 8.14188ZM10.5879 14.0069H7.00539C5.06851 14.0069 3.49851 12.4369 3.49851 10.5C3.49851 8.56313 5.06851 6.99313 7.00539 6.99313H10.5885L10.5879 14.0069ZM7.00539 2.27688C5.70289 2.27688 4.64726 3.3325 4.64726 4.635C4.64726 5.9375 5.70289 6.99313 7.00539 6.99313H9.43976V2.27625L7.00539 2.27688ZM10.5879 8.14188H7.00539C5.06851 8.14188 3.49789 6.57188 3.49789 4.63438C3.49789 2.69688 5.06789 1.12688 7.00539 1.12688H10.5885L10.5879 8.14188ZM10.5885 6.99313H13.0229C14.3229 6.99 15.3748 5.93563 15.3748 4.635C15.3748 3.33438 14.3223 2.28 13.0223 2.27688H10.5879L10.5885 6.99313ZM13.0229 8.14188L9.43976 8.1425V1.1275H13.0229C14.9598 1.1275 16.5304 2.6975 16.5304 4.635C16.5304 6.5725 14.9604 8.14188 13.0229 8.14188Z" fill="#212121"/>
</svg>
