<svg width="21" height="21" viewBox="0 0 21 21" fill="none" xmlns="http://www.w3.org/2000/svg">
<g clip-path="url(#clip0_27_345)">
<path d="M19.0317 9.66438L10.8473 1.48063C10.6286 1.2625 10.3267 1.1275 9.99296 1.1275C9.65921 1.1275 9.35733 1.2625 9.13858 1.48063L7.44296 3.17938L9.59858 5.335C9.73608 5.28688 9.89421 5.25938 10.0592 5.25938C10.8523 5.25938 11.4948 5.90188 11.4948 6.695C11.4948 6.86313 11.4661 7.02375 11.413 7.17375L11.4161 7.16375L13.4923 9.24125C13.6311 9.19188 13.7917 9.16313 13.9586 9.16313C14.7511 9.16313 15.3936 9.80563 15.3936 10.5981C15.3936 11.3906 14.7511 12.0331 13.9586 12.0331C13.1661 12.0331 12.5236 11.3906 12.5236 10.5981C12.5236 10.4025 12.563 10.2163 12.6336 10.0463L12.6298 10.0556L10.6861 8.12188V13.2181C11.1636 13.4588 11.4855 13.945 11.4855 14.5063C11.4855 15.3 10.8417 15.9438 10.048 15.9438C9.25421 15.9438 8.61046 15.3 8.61046 14.5063C8.61046 14.11 8.77046 13.7519 9.02983 13.4919C9.16171 13.36 9.31858 13.2531 9.49296 13.1781L9.50233 13.1744V8.02813C8.97608 7.80688 8.61358 7.295 8.61358 6.69938C8.61358 6.49938 8.65421 6.30938 8.72796 6.13625L8.72421 6.14563L6.60608 4.0175L0.993584 9.62625C0.776084 9.84563 0.642334 10.1475 0.642334 10.4813C0.642334 10.815 0.776709 11.1169 0.994209 11.3363L9.17921 19.5188C9.39733 19.7375 9.69921 19.8725 10.033 19.8725C10.3667 19.8725 10.668 19.7375 10.8867 19.5188L19.033 11.3725C19.2517 11.1544 19.3873 10.8519 19.3873 10.5188C19.3873 10.1856 19.2517 9.88313 19.033 9.665L19.0317 9.66438Z" fill="#212121"/>
</g>
<defs>
<clipPath id="clip0_27_345">
<rect width="20" height="20" fill="white" transform="translate(0.0141602 0.5)"/>
</clipPath>
</defs>
</svg>
