<svg width="20" height="21" viewBox="0 0 20 21" fill="none" xmlns="http://www.w3.org/2000/svg">
<g clip-path="url(#clip0_27_278)">
<path fill-rule="evenodd" clip-rule="evenodd" d="M15.4351 6.5H15.428H6.81201L7.01805 8.5H15.2301C15.1097 10.252 14.7456 13.9638 14.612 15.6528L9.99952 16.9512V16.9551L9.98932 16.96L5.37381 15.3359L5.0576 11.5H7.31997L7.48011 13.563L9.9934 14.5H9.99952L12.5087 13.6001L12.7668 10.5H4.95662C4.91888 10.099 4.43336 4.892 4.3487 4.5H15.6371C15.5738 5.16 15.5096 5.838 15.4351 6.5ZM1.00003 0.5L2.63816 18.6479L9.98932 20.5L17.3599 18.6108L19 0.5H1.00003Z" fill="#212121"/>
</g>
<defs>
<clipPath id="clip0_27_278">
<rect width="20" height="20" fill="white" transform="translate(3.05176e-05 0.5)"/>
</clipPath>
</defs>
</svg>
