<svg width="20" height="21" viewBox="0 0 20 21" fill="none" xmlns="http://www.w3.org/2000/svg">
<path d="M8.23002 19.8131C11.6056 20.0294 16.7894 19.6938 16.9119 18.0963C16.9119 18.0963 16.6763 18.7013 14.1219 19.1825C12.7113 19.4369 11.0875 19.5819 9.4294 19.5819C8.07127 19.5819 6.73627 19.4844 5.43065 19.2963L5.58002 19.3138C5.58002 19.3131 6.0119 19.6706 8.23002 19.8131ZM11.875 1.1275C11.875 1.1275 13.8231 3.07563 10.0281 6.07125C6.98502 8.47438 9.3344 9.845 10.0275 11.4106C8.25127 9.80688 6.94815 8.3975 7.8219 7.08438C9.10565 5.15625 12.6613 4.22188 11.875 1.1275ZM13.9956 14.8613C17.5125 13.0338 15.8863 11.2769 14.7519 11.5144C14.5963 11.5438 14.4613 11.5813 14.3306 11.6281L14.3494 11.6225C14.4238 11.5181 14.5263 11.4375 14.6456 11.3919L14.65 11.3906C16.8956 10.6013 18.6225 13.7188 13.925 14.9538C13.9538 14.9281 13.9775 14.8975 13.9944 14.8631L13.9956 14.8613ZM7.88502 11.445C7.88502 11.445 4.47815 12.2544 6.6794 12.5475C7.2719 12.5963 7.9619 12.6238 8.65815 12.6238C9.54815 12.6238 10.4275 12.5781 11.2944 12.49L11.1856 12.4988C12.5963 12.38 14.0113 12.1263 14.0113 12.1263C13.6794 12.2713 13.3975 12.4244 13.1306 12.5988L13.1538 12.585C9.6944 13.495 3.01127 13.0719 4.93565 12.1413C5.78377 11.7019 6.78752 11.4444 7.85127 11.4444C7.86315 11.4444 7.87502 11.4444 7.8869 11.4444L7.88502 11.445ZM15.725 17.1419C15.725 17.1419 16.2556 17.5788 15.1419 17.9156C13.0238 18.5575 6.32565 18.7506 4.46627 17.9413C3.79752 17.65 5.0519 17.2463 5.44565 17.1619C5.62752 17.1156 5.8369 17.0888 6.0519 17.0888C6.06627 17.0888 6.08002 17.0888 6.0944 17.0894H6.09252C5.34815 16.565 1.2844 18.1181 4.02815 18.5631C11.5106 19.7763 17.6656 18.0163 15.725 17.1419ZM10.8719 10.09C11.0681 10.3256 11.1875 10.6325 11.1875 10.9663C11.1875 11.4156 10.9713 11.815 10.6375 12.0656L10.6338 12.0681C10.6338 12.0681 12.9294 10.8825 11.875 9.39875C10.89 8.015 10.135 7.3275 14.2238 4.95625C14.2238 4.95563 7.8069 6.55813 10.8719 10.09ZM7.09127 13.5719C7.09127 13.5719 6.28815 14.1663 7.5144 14.2938C8.05127 14.3613 8.6719 14.3994 9.3019 14.3994C10.4431 14.3994 11.555 14.2731 12.6238 14.0338L12.5225 14.0525C12.7375 14.2538 12.9944 14.4138 13.2781 14.5175L13.2938 14.5225C8.85815 15.82 3.91627 14.6238 7.09065 13.5713L7.09127 13.5719ZM7.54065 15.6238C7.54065 15.6238 6.8244 16.0406 8.05065 16.1813C8.50002 16.2481 9.01815 16.2863 9.54565 16.2863C10.3919 16.2863 11.215 16.1881 12.0044 16.0019L11.9319 16.0163C12.2238 16.1944 12.5631 16.3644 12.9175 16.505L12.9638 16.5213C9.29377 18.0938 4.6594 16.4294 7.54127 15.6238H7.54065Z" fill="#212121"/>
</svg>
