<svg width="20" height="21" viewBox="0 0 20 21" fill="none" xmlns="http://www.w3.org/2000/svg">
<path d="M18.75 1.75H1.25003V19.25H18.75V1.75Z" fill="#212121"/>
<path d="M11.875 16.3049L13.1635 15.4523C13.2645 15.7696 13.9039 16.523 14.7116 16.523C15.5193 16.523 15.8943 16.0819 15.8943 15.7894C15.8943 14.9924 15.0695 14.7114 14.6734 14.5764C14.6088 14.5544 14.5557 14.5363 14.5193 14.5205C14.5006 14.5124 14.4724 14.5016 14.4362 14.4877C13.9957 14.3194 12.3702 13.6984 12.3702 11.8983C12.3702 9.91562 14.2837 9.68762 14.7164 9.68762C14.9995 9.68762 16.3606 9.72231 17.0385 10.9962L15.7885 11.8686C15.5145 11.3134 15.0592 11.1301 14.7789 11.1301C14.0866 11.1301 13.9423 11.6376 13.9423 11.8686C13.9423 12.5169 14.6945 12.8074 15.3296 13.0527C15.4958 13.1169 15.6539 13.178 15.7885 13.2416C16.4808 13.5687 17.5 14.1041 17.5 15.7894C17.5 16.6335 16.792 18.0001 15.0097 18.0001C12.6154 18.0001 11.9808 16.5627 11.875 16.3049Z" fill="#F1EAD2"/>
<path d="M5.62503 16.4742L6.96797 15.6221C7.07316 15.9391 7.48209 16.5237 8.07534 16.5237C8.66866 16.5237 8.97234 15.9144 8.97234 15.6221V9.87512H10.6239V15.6221C10.6507 16.4147 10.211 18.0001 8.27078 18.0001C6.48691 18.0001 5.74529 16.9399 5.62503 16.4742Z" fill="#F1EAD2"/>
</svg>
