<svg width="20" height="21" viewBox="0 0 20 21" fill="none" xmlns="http://www.w3.org/2000/svg">
<g clip-path="url(#clip0_27_307)">
<path d="M18.851 6.27612V14.718C18.851 15.2659 18.5562 15.776 18.0826 16.0517L10.7682 20.275C10.5343 20.4107 10.2689 20.4805 9.99792 20.4805C9.73081 20.4805 9.46476 20.4107 9.23078 20.275L6.78855 18.8301C6.42425 18.6267 6.60203 18.5544 6.72245 18.5126C7.20894 18.3438 7.30734 18.3049 7.82667 18.0101C7.88085 17.9792 7.9523 17.9913 8.0082 18.0235L9.88441 19.1376C9.95242 19.1759 10.0485 19.1759 10.111 19.1376L17.426 14.9155C17.4941 14.8766 17.5378 14.7989 17.5378 14.7181V6.27612C17.5378 6.19343 17.4941 6.1162 17.4243 6.07444L10.1123 1.85608C10.0449 1.81663 9.95488 1.81663 9.88699 1.85608L2.57667 6.07561C2.50566 6.11624 2.46085 6.19589 2.46085 6.27612V14.718C2.46085 14.7989 2.50562 14.8746 2.57624 14.913L4.58011 16.0713C5.66718 16.6144 6.33304 15.9742 6.33304 15.3309V6.99644C6.33304 6.87858 6.42769 6.78565 6.5455 6.78565H7.47312C7.5891 6.78565 7.68519 6.87855 7.68519 6.99644V15.3309C7.68519 16.7819 6.89472 17.6142 5.5191 17.6142C5.0966 17.6142 4.76335 17.6142 3.83402 17.1567L1.91613 16.0517C1.44218 15.7785 1.14902 15.2659 1.14902 14.718V6.27612C1.14902 5.72757 1.44218 5.21558 1.91613 4.94272L9.23081 0.71585C9.6937 0.454092 10.3093 0.454092 10.7682 0.71585L18.0826 4.94272C18.5562 5.21671 18.851 5.72757 18.851 6.27612ZM12.5458 13.9128C10.363 13.9128 9.88269 13.364 9.72179 12.2785C9.70316 12.1627 9.6039 12.0764 9.48495 12.0764H8.41831C8.2862 12.0764 8.18019 12.182 8.18019 12.3148C8.18019 13.7039 8.9362 15.3606 12.5458 15.3606C15.1593 15.3606 16.6578 14.3317 16.6578 12.5347C16.6578 10.7525 15.4537 10.2784 12.9192 9.94288C10.3575 9.6039 10.0972 9.42933 10.0972 8.82929C10.0972 8.33472 10.3177 7.67378 12.215 7.67378C13.9093 7.67378 14.534 8.03898 14.7908 9.18065C14.8134 9.28827 14.9112 9.36679 15.0222 9.36679H16.0928C16.1593 9.36679 16.2223 9.33827 16.2675 9.29089C16.3127 9.24089 16.3367 9.17577 16.3304 9.10749C16.1647 7.13964 14.8572 6.22296 12.215 6.22296C9.86308 6.22296 8.46038 7.21569 8.46038 8.87929C8.46038 10.6846 9.85605 11.184 12.1127 11.4067C14.8134 11.6716 15.023 12.0662 15.023 12.5976C15.023 13.5195 14.2834 13.9128 12.5458 13.9128Z" fill="#212121"/>
</g>
<defs>
<clipPath id="clip0_27_307">
<rect width="20" height="20" fill="white" transform="translate(3.05176e-05 0.5)"/>
</clipPath>
</defs>
</svg>
