<svg width="20" height="21" viewBox="0 0 20 21" fill="none" xmlns="http://www.w3.org/2000/svg">
<g clip-path="url(#clip0_27_300)">
<path fill-rule="evenodd" clip-rule="evenodd" d="M12.744 18.958C12.262 18.958 11.872 18.5661 11.872 18.0815C11.872 17.597 12.262 17.2061 12.744 17.2061C13.226 17.2061 13.616 17.597 13.616 18.0815C13.616 18.5661 13.226 18.958 12.744 18.958ZM10.072 20.5C15.15 20.5 14.833 18.2866 14.833 18.2866L14.827 15.9937H9.98203V15.3052H16.751C16.751 15.3052 20 15.6761 20 10.5264C20 5.37659 17.165 5.55811 17.165 5.55811H15.472V7.94873C15.472 7.94873 15.563 10.7983 12.682 10.7983H7.87604C7.87604 10.7983 5.17603 10.7555 5.17603 13.4224V17.8311C5.17603 17.8311 4.76602 20.5 10.072 20.5ZM7.25702 2.04199C7.73902 2.04199 8.12802 2.43394 8.12802 2.91846C8.12802 3.40298 7.73902 3.79395 7.25702 3.79395C6.77502 3.79395 6.38504 3.40298 6.38504 2.91846C6.38504 2.43394 6.77502 2.04199 7.25702 2.04199ZM9.92804 0.5C4.85104 0.5 5.16803 2.71338 5.16803 2.71338L5.17404 5.00635H10.019V5.69482H3.24902C3.24902 5.69482 3.05176e-05 5.32386 3.05176e-05 10.4736C3.05176e-05 15.6234 2.83603 15.4419 2.83603 15.4419H4.52805V13.0513C4.52805 13.0513 4.43703 10.2017 7.31903 10.2017H12.124C12.124 10.2017 14.824 10.2445 14.824 7.57764V3.16895C14.824 3.16895 15.234 0.5 9.92804 0.5Z" fill="#212121"/>
</g>
<defs>
<clipPath id="clip0_27_300">
<rect width="20" height="20" fill="white" transform="translate(3.05176e-05 0.5)"/>
</clipPath>
</defs>
</svg>
