<svg width="21" height="21" viewBox="0 0 21 21" fill="none" xmlns="http://www.w3.org/2000/svg">
<g clip-path="url(#clip0_27_349)">
<path d="M0.107051 9.0581C0.0594065 9.39203 0.0284046 9.72813 0.0141602 10.0651H15.2055C15.1525 9.9615 15.0812 9.86807 15.0094 9.77662C12.4123 6.42133 11.0153 6.71225 9.0168 6.62701C8.35051 6.59961 7.89865 6.58859 5.24654 6.58859C3.82707 6.58859 2.28389 6.59221 0.781152 6.59621C0.586621 7.12129 0.399004 7.63023 0.307656 8.04426H8.09225V9.0581H0.107051ZM15.3253 11.08H0.0219531C0.0379687 11.3505 0.0632031 11.6174 0.0996484 11.8808H14.2284C14.8582 11.8808 15.2108 11.5234 15.3253 11.08ZM0.893398 14.6466C0.893398 14.6466 3.23566 20.3979 10.0036 20.5C14.0488 20.5 17.5245 18.0975 19.1034 14.6466H0.893398Z" fill="#100F13"/>
<path d="M10.0034 0.5C6.26319 0.5 3.00847 2.55391 1.2897 5.59008C2.63288 5.58727 5.24876 5.58566 5.24876 5.58566H5.24937V5.58467C8.34134 5.58467 8.45626 5.59848 9.06026 5.62369L9.43427 5.63748C10.737 5.68092 12.3382 5.82076 13.5981 6.774C14.282 7.29102 15.2694 8.43213 15.8581 9.2451C16.4022 9.99703 16.5588 10.8614 16.1888 11.6896C15.8482 12.4507 15.1155 12.9047 14.2282 12.9047H0.340088C0.340088 12.9047 0.422764 13.2552 0.546729 13.6421H19.5044C19.841 12.6301 20.0131 11.5707 20.0141 10.5043C20.0143 4.97959 15.5323 0.5 10.0034 0.5Z" fill="#100F13"/>
</g>
<defs>
<clipPath id="clip0_27_349">
<rect width="20" height="20" fill="white" transform="translate(0.0141602 0.5)"/>
</clipPath>
</defs>
</svg>
