<svg width="20" height="20" viewBox="0 0 20 20" fill="none" xmlns="http://www.w3.org/2000/svg">
<path d="M8.94561 13.8819C9.28936 13.8975 9.64061 13.9087 9.99624 13.9087C10.3556 13.9087 10.7106 13.9012 11.0587 13.8819C10.7106 14.3319 10.3669 14.73 10.0031 15.1094L10.0081 15.1044C9.64624 14.7294 9.29874 14.3306 8.97124 13.9156L8.94561 13.8819ZM5.38436 13.3819C6.06124 13.5537 6.88686 13.7 7.72936 13.79L7.81124 13.7969C8.32686 14.505 8.84811 15.1281 9.40749 15.7144L9.40061 15.7069C8.58124 16.6212 7.47561 17.2637 6.22499 17.4944L6.19061 17.4994C6.18811 17.4994 6.18561 17.4994 6.18311 17.4994C6.02811 17.4994 5.88186 17.4612 5.75374 17.3937L5.75874 17.3962C5.23874 17.0994 5.01311 15.9637 5.18874 14.5044C5.23061 14.145 5.29936 13.7669 5.38374 13.3812L5.38436 13.3819ZM14.6237 13.3737C14.6975 13.67 14.7669 14.0475 14.8162 14.4312L14.8219 14.485C15.0012 15.9437 14.78 17.0781 14.2644 17.3812C14.1494 17.445 14.0119 17.4825 13.8656 17.4825C13.8512 17.4825 13.8369 17.4819 13.8225 17.4812H13.8244C12.5412 17.2469 11.4362 16.6087 10.6187 15.7056L10.6144 15.7006C11.1637 15.1237 11.6812 14.5019 12.1556 13.8475L12.1919 13.795C13.1144 13.6987 13.9412 13.55 14.7469 13.3469L14.6237 13.3731V13.3737ZM6.11499 11.0412C6.27124 11.3475 6.43499 11.6525 6.61499 11.9587C6.79457 12.2633 6.97811 12.5608 7.16561 12.8512C6.62311 12.7719 6.09936 12.6719 5.59874 12.55C5.73936 12.0581 5.91561 11.5487 6.11436 11.04L6.11499 11.0412ZM13.8825 11.0256C14.0894 11.5387 14.265 12.0506 14.4106 12.5469C13.9106 12.6694 13.3825 12.7731 12.8362 12.8512C13.0237 12.5581 13.2112 12.2562 13.3869 11.9469C13.5625 11.6425 13.7269 11.3312 13.8837 11.025L13.8825 11.0256ZM4.76186 7.6825C5.03436 8.60625 5.32686 9.37875 5.66749 10.1237L5.62061 10.01C5.32936 10.6381 5.04124 11.4062 4.80499 12.1969L4.77249 12.325C4.33124 12.1894 3.97624 12.0562 3.63061 11.9069L3.70249 11.9344C2.34999 11.3587 1.47499 10.6019 1.47499 10.0019C1.47499 9.40187 2.34999 8.64125 3.70249 8.06812C4.03061 7.9275 4.39061 7.80062 4.76186 7.6825ZM15.2237 7.67937C15.6019 7.79625 15.9612 7.92687 16.2975 8.06812C17.65 8.64625 18.525 9.40187 18.525 10.0019C18.5212 10.6019 17.6462 11.3606 16.2937 11.935C15.9656 12.0756 15.6062 12.2019 15.2356 12.32C14.9606 11.3931 14.6681 10.6212 14.3287 9.875L14.3762 9.9925C14.6662 9.365 14.955 8.59687 15.1906 7.80625L15.2237 7.6775V7.67937ZM12.8312 7.1525C13.3744 7.23312 13.8975 7.33187 14.3981 7.455C14.2575 7.94875 14.0819 8.45625 13.8825 8.965C13.7262 8.66062 13.5625 8.35375 13.3825 8.04812C13.2069 7.74187 13.0194 7.44375 12.8319 7.15312L12.8312 7.1525ZM7.16124 7.1525C6.97374 7.44687 6.78624 7.74812 6.61124 8.05875C6.43561 8.36312 6.27124 8.66937 6.11499 8.97562C5.90811 8.46312 5.73249 7.9525 5.58686 7.455C6.08686 7.33812 6.61374 7.23375 7.16061 7.15375L7.16124 7.1525ZM9.99999 6.95375C10.5781 6.95375 11.1537 6.98 11.72 7.02625C12.0371 7.48083 12.345 7.965 12.6437 8.47875C12.9342 8.97875 13.1992 9.48541 13.4387 9.99875C13.1981 10.5106 12.9344 11.0219 12.6475 11.5219C12.3506 12.0375 12.0437 12.5281 11.7256 12.9825C11.1569 13.0319 10.5806 13.0587 9.99936 13.0587C9.42124 13.0587 8.84561 13.0312 8.27936 12.9862C7.96249 12.5319 7.65311 12.0456 7.35561 11.5337C7.0652 11.0337 6.8002 10.5271 6.56061 10.0137C6.79749 9.50062 7.06499 8.98812 7.35186 8.4875C7.64874 7.97187 7.95561 7.48312 8.27374 7.02875C8.84249 6.97875 9.41874 6.9525 9.99999 6.9525V6.95375ZM9.98811 4.90312C10.3506 5.27812 10.6981 5.67625 11.025 6.09125L11.05 6.12437C10.7062 6.10875 10.355 6.09812 9.99936 6.09812C9.63999 6.09812 9.28499 6.10562 8.93686 6.12437C9.28436 5.67437 9.62811 5.27625 9.99249 4.89687L9.98749 4.90187L9.98811 4.90312ZM6.17499 2.52062C7.45811 2.75562 8.56249 3.39375 9.38061 4.29625L9.38499 4.30125C8.83561 4.87875 8.31811 5.50062 7.84374 6.15625L7.80749 6.20875C6.88561 6.30437 6.05874 6.45187 5.25374 6.655L5.37624 6.62875C5.28874 6.24625 5.22374 5.87562 5.17811 5.52C4.99874 4.06125 5.21999 2.92687 5.73561 2.625C5.86436 2.56437 6.01499 2.52687 6.17374 2.52187H6.17561L6.17499 2.52062ZM13.8062 2.505V2.51C13.8144 2.51 13.8237 2.50937 13.8337 2.50937C13.9831 2.50937 14.1237 2.54625 14.2475 2.61125L14.2425 2.60875C14.7625 2.90687 14.9881 4.04187 14.8125 5.50187C14.7706 5.86125 14.7019 6.24 14.6175 6.62625C13.9394 6.4525 13.1137 6.30562 12.2712 6.21625L12.1912 6.20937C11.675 5.50062 11.1537 4.8775 10.5944 4.29062L10.6019 4.29812C11.4212 3.38562 12.525 2.74312 13.7731 2.51125L13.8081 2.50562L13.8062 2.505ZM13.81 1.65375C12.2837 1.88562 10.9625 2.62687 9.99749 3.69625L9.99249 3.70187C9.02061 2.63312 7.69936 1.89687 6.21061 1.67375L6.17561 1.66937C6.16749 1.66937 6.15749 1.66937 6.14749 1.66937C5.84061 1.66937 5.55249 1.75 5.30311 1.89125L5.31186 1.88687C4.23811 2.50625 3.99749 4.43625 4.55186 6.85812C2.17436 7.5925 0.628113 8.76625 0.628113 10.0031C0.628113 11.245 2.18249 12.4219 4.56686 13.1506C4.01686 15.5819 4.26249 17.515 5.33874 18.1337C5.57499 18.2694 5.85874 18.3487 6.16061 18.3487C6.17436 18.3487 6.18811 18.3487 6.20124 18.3481H6.19936C7.72561 18.1162 9.04686 17.3744 10.0119 16.3044L10.0169 16.2987C10.9887 17.3681 12.31 18.1044 13.7987 18.3275L13.8337 18.3319C13.8431 18.3319 13.855 18.3319 13.8662 18.3319C14.1712 18.3319 14.4581 18.2519 14.7062 18.1125L14.6975 18.1169C15.7706 17.4981 16.0119 15.5681 15.4575 13.1456C17.8262 12.4175 19.3725 11.2412 19.3725 10.0025C19.3725 8.76062 17.8181 7.58375 15.4337 6.85312C15.9837 4.42437 15.7381 2.48937 14.6619 1.87C14.4231 1.73312 14.1369 1.6525 13.8319 1.6525C13.8237 1.6525 13.8156 1.6525 13.8075 1.6525H13.8087L13.81 1.65375ZM11.7419 10.0031C11.7419 10.9675 10.96 11.7494 9.99561 11.7494C9.03124 11.7494 8.24936 10.9675 8.24936 10.0031C8.24936 9.03875 9.03124 8.25687 9.99561 8.25687C10.4781 8.25687 10.9144 8.4525 11.2306 8.76812C11.5469 9.08437 11.7419 9.52062 11.7419 10.0031Z" fill="#212121"/>
</svg>
