<svg width="20" height="20" viewBox="0 0 20 20" fill="none" xmlns="http://www.w3.org/2000/svg">
<g clip-path="url(#clip0_27_332)">
<path d="M10 1.66667C11.6482 1.66667 13.2594 2.15541 14.6298 3.07109C16.0002 3.98677 17.0683 5.28826 17.699 6.81098C18.3297 8.33369 18.4948 10.0092 18.1732 11.6258C17.8517 13.2423 17.058 14.7271 15.8926 15.8926C14.7271 17.058 13.2423 17.8517 11.6258 18.1732C10.0093 18.4948 8.33371 18.3297 6.81099 17.699C5.28827 17.0683 3.98679 16.0002 3.07111 14.6298C2.15543 13.2593 1.66669 11.6482 1.66669 10C1.66669 7.78987 2.54466 5.67025 4.10746 4.10745C5.67027 2.54465 7.78988 1.66667 10 1.66667ZM8.33335 12.775C8.45867 13.1822 8.45867 13.6178 8.33335 14.025C8.33335 14.0667 8.33335 14.1083 8.28335 14.1667C8.23335 14.225 8.28335 14.225 8.22502 14.2667C8.12855 14.4724 7.99906 14.661 7.84169 14.825C7.35835 15.3583 6.66669 15.5583 6.39169 15.3917C6.11669 15.225 6.25002 14.4583 6.80002 13.8667C7.23071 13.4418 7.72567 13.0875 8.26669 12.8167L8.33335 12.775ZM15.225 5.275C14.85 3.79167 12.3917 3.30834 10.075 4.13334C8.62258 4.6086 7.27767 5.36458 6.11669 6.35834C4.84169 7.55834 4.63335 8.6 4.71669 9.03334C5.00002 10.5667 7.11669 11.575 7.98335 12.3167C7.73335 12.4417 5.86669 13.3833 5.41669 14.35C5.2264 14.6519 5.16341 15.0169 5.24149 15.3652C5.31957 15.7134 5.53237 16.0166 5.83335 16.2083C6.36778 16.3373 6.92916 16.2957 7.43878 16.0895C7.94839 15.8832 8.38068 15.5227 8.67502 15.0583C8.9184 14.6835 9.07077 14.257 9.11997 13.8128C9.16916 13.3686 9.11382 12.919 8.95835 12.5C9.37604 12.4023 9.80776 12.3798 10.2334 12.4333C11.7 12.6083 11.9834 13.5167 11.9 13.9C11.8752 14.0362 11.8214 14.1654 11.7424 14.279C11.6633 14.3925 11.5608 14.4878 11.4417 14.5583C11.3417 14.6167 11.3084 14.6417 11.3167 14.6917C11.325 14.7417 11.375 14.7583 11.4584 14.7417C11.6857 14.6798 11.8881 14.5487 12.0375 14.3665C12.1868 14.1843 12.2757 13.9601 12.2917 13.725C12.2917 12.825 11.4584 11.825 9.95002 11.85C9.50958 11.8397 9.07043 11.9016 8.65002 12.0333L8.58335 11.9583C7.64169 10.9583 5.90835 10.2917 5.98335 8.9C5.98335 8.40834 6.17502 7.125 9.31669 5.56667C11.8834 4.28334 13.9417 4.63334 14.3167 5.425C14.825 6.53334 13.2167 8.60834 10.55 8.90834C10.258 8.96359 9.95749 8.95417 9.66953 8.88074C9.38158 8.80732 9.11322 8.67166 8.88335 8.48334C8.74169 8.34167 8.72502 8.31667 8.67502 8.34167C8.62502 8.36667 8.67502 8.53334 8.67502 8.61667C8.88692 8.98167 9.22941 9.25268 9.63335 9.375C10.6844 9.60184 11.78 9.49402 12.7667 9.06667C14.3334 8.43334 15.6 6.66667 15.225 5.23334V5.275Z" fill="#212121"/>
</g>
<defs>
<clipPath id="clip0_27_332">
<rect width="20" height="20" fill="white"/>
</clipPath>
</defs>
</svg>
